#!OML:ASF F:\VICON\USERDATA\INSTALL\Justin_Nancy\Justin_Nancy.ASF
:FULLY-SPECIFIED
:DEGREES
34
root -8.61358 16.914 -27.3997 1.29674 -6.97321 -4.93218
lowerback 6.76092 -0.633692 1.32341
upperback -4.17776 -0.265869 6.11594
thorax -8.21518 -0.00774519 5.81245
lowerneck -1.18996 0.819951 -16.3376
upperneck 18.4002 1.26879 5.89112
head 5.64188 -0.0837777 4.65107
rclavicle -1.46107e-014 -1.59028e-014
rhumerus -28.902 6.38273 -79.3978
rradius 41.8647
rwrist -1.4528
rhand -17.9946 11.8029
rfingers 7.12502
rthumb 8.27556 -18.015
lclavicle -1.46107e-014 -1.59028e-014
lhumerus -53.7005 23.576 78.0448
lradius 22.2763
lwrist -13.5406
lhand -14.5235 22.1142
lfingers 7.12502
lthumb 11.6243 51.7718
rfemur 17.2414 5.07115 29.5432
rtibia 22.3367
rfoot -10.6323 0.364068
rtoes -17.0387
lfemur -33.8115 -3.36159 -15.3184
ltibia 23.9776
lfoot -7.90334 0.91427
ltoes -9.09723
35
root -8.60382 16.9152 -27.1128 1.15883 -7.13199 -4.91557
lowerback 6.64302 -0.505408 1.15709
upperback -4.11236 -0.112514 6.22068
thorax -8.09023 0.0779581 5.99469
lowerneck -1.71313 0.676736 -16.47
upperneck 19.0886 1.17659 5.91003
head 5.96089 -0.160294 4.69718
rclavicle 1.09332e-014 4.29375e-014
rhumerus -29.1143 6.34197 -79.0372
rradius 42.1027
rwrist -1.77013
rhand -17.9139 11.9793
rfingers 7.12502
rthumb 8.35342 -17.8356
lclavicle 1.09332e-014 4.29375e-014
lhumerus -53.8967 24.123 77.7344
lradius 21.9914
lwrist -14.3495
lhand -13.992 21.5823
lfingers 7.12502
lthumb 12.1369 51.2102
rfemur 17.092 4.76482 29.1155
rtibia 24.058
rfoot -8.5921 1.60565
rtoes -16.9551
lfemur -33.559 -3.74424 -15.5109
ltibia 25.205
lfoot -6.17821 -1.33085
ltoes -7.84242
36
root -8.58287 16.9353 -26.8183 1.03737 -7.26107 -4.72204
lowerback 6.4367 -0.321 0.754461
upperback -3.85759 0.0766869 6.30103
thorax -7.71429 0.186784 6.27188
lowerneck -2.89527 0.151547 -16.2789
upperneck 19.8044 0.733278 5.48796
head 6.45568 -0.412329 4.53169
rclavicle 3.16068e-014 -2.06736e-014
rhumerus -28.9932 6.13546 -78.6017
rradius 42.3781
rwrist -2.30297
rhand -17.8876 12.0195
rfingers 7.12502
rthumb 8.37885 -17.7943
lclavicle 3.16068e-014 -2.06736e-014
lhumerus -53.4705 24.5045 77.9181
lradius 21.7213
lwrist -14.9273
lhand -13.258 23.1656
lfingers 7.12502
lthumb 12.8445 52.7504
rfemur 16.6888 4.30707 28.2922
rtibia 26.1162
rfoot -6.12143 3.12919
rtoes -15.2026
lfemur -33.4019 -4.07921 -15.926
ltibia 26.3057
lfoot -3.50462 -3.20534
ltoes -7.54599
37
root -8.55253 16.9519 -26.526 0.929953 -7.27365 -4.51313
lowerback 6.22784 -0.108466 0.193216
upperback -3.40525 0.285301 6.45699
thorax -7.13428 0.306885 6.71685
lowerneck -5.02169 -0.361522 -15.864
upperneck 20.763 0.452632 5.0735
head 7.17925 -0.572265 4.34684
rclavicle -1.32192e-014 1.11319e-014
rhumerus -28.2968 5.44089 -77.9091
rradius 42.3798
rwrist -2.51198
rhand -17.9217 11.9342
rfingers 7.12502
rthumb 8.3459 -17.8809
lclavicle -1.32192e-014 1.11319e-014
lhumerus -52.5704 25.2162 78.1601
lradius 21.1527
lwrist -15.937
lhand -13.391 23.6413
lfingers 7.12502
lthumb 12.7163 53.2341
rfemur 16.0359 3.82522 27.3701
rtibia 28.5584
rfoot -2.7219 4.52983
rtoes -11.6623
lfemur -33.2641 -4.54815 -16.3495
ltibia 27.2935
lfoot -1.53761 -3.85564
ltoes -9.05657
38
root -8.53088 16.9606 -26.2464 0.715801 -7.31 -4.10769
lowerback 6.10011 1.44931 2.08423
upperback -2.7624 2.37423 4.29905
thorax -6.41924 1.18228 3.05565
lowerneck -7.09195 -2.23995 -13.651
upperneck 21.4861 -2.32628 6.13239
head 8.05116 -1.63534 4.1358
rclavicle 4.02539e-015 -7.07673e-014
rhumerus -28.289 -1.58417 -77.9603
rradius 42.3713
rwrist -1.97116
rhand -17.8678 12.2277
rfingers 7.12502
rthumb 8.39792 -17.5853
lclavicle 4.02539e-015 -7.07673e-014
lhumerus -48.8681 20.2406 78.9164
lradius 20.0194
lwrist -16.3829
lhand -13.5584 23.1164
lfingers 7.12502
lthumb 12.5549 52.7192
rfemur 15.1253 3.48981 26.3678
rtibia 31.3954
rfoot 1.40401 5.39816
rtoes -9.68473
lfemur -32.8856 -4.99313 -16.97
ltibia 28.1653
lfoot -0.312962 -4.22944
ltoes -7.79736
39
root -8.51813 16.9716 -25.9683 0.478626 -7.47181 -3.36051
lowerback 6.23306 3.12444 3.26991
upperback -1.2129 4.52011 2.02381
thorax -4.66348 2.17691 -0.186921
lowerneck -13.3807 -4.70021 -10.6994
upperneck 22.88 -5.67643 6.53449
head 9.98015 -2.84169 3.36912
rclavicle -2.19649e-014 -7.55382e-015
rhumerus -26.127 -9.13271 -78.4134
rradius 42.0814
rwrist -1.28682
rhand -17.7992 12.4587
rfingers 7.12502
rthumb 8.4641 -17.3517
lclavicle -2.19649e-014 -7.55382e-015
lhumerus -42.9503 15.1833 80.1362
lradius 18.9581
lwrist -16.2876
lhand -12.9985 24.1135
lfingers 7.12502
lthumb 13.0947 53.6824
rfemur 13.764 3.31163 25.04
rtibia 34.6126
rfoot 5.27502 6.17153
rtoes -10.1718
lfemur -32.3154 -5.30255 -17.9819
ltibia 29.0252
lfoot 0.260935 -4.60457
ltoes -5.19832
40
root -8.50935 16.9915 -25.6929 0.285981 -7.80807 -2.64915
lowerback 6.36385 3.27741 2.56022
upperback -1.2879 4.667 1.81292
thorax -4.8498 2.2633 -0.0374643
lowerneck -13.8828 -4.56149 -10.6883
upperneck 23.4252 -5.48223 6.65456
head 10.2553 -2.73367 3.43929
rclavicle -7.77124e-015 -5.1684e-015
rhumerus -26.4602 -9.54082 -78.3497
rradius 41.794
rwrist -0.983356
rhand -18.1217 12.1406
rfingers 7.12502
rthumb 8.15289 -17.6821
lclavicle -7.77124e-015 -5.1684e-015
lhumerus -43.2352 15.2899 79.9125
lradius 19.0664
lwrist -16.1462
lhand -12.4515 25.2564
lfingers 7.12502
lthumb 13.6219 54.7907
rfemur 12.0368 3.40339 23.7889
rtibia 38.0909
rfoot 8.54417 7.10158
rtoes -9.3478
lfemur -31.6932 -5.31456 -19.0237
ltibia 29.9555
lfoot 0.359338 -3.91711
ltoes -5.79229
